<svg width="66" height="58" viewBox="0 0 66 58" fill="none" xmlns="http://www.w3.org/2000/svg">
<g clip-path="url(#clip0_17_7899)">
<path d="M33.0265 58C25.0141 58 16.9989 58 8.9865 58C5.21825 58 2.43242 56.3273 0.832166 52.9123C-0.44247 50.1942 -0.225392 47.4566 1.30528 44.8806C6.35652 36.3946 11.4384 27.9253 16.5091 19.4476C19.4981 14.4519 22.4954 9.46175 25.4677 4.45488C28.9771 -1.45524 37.0201 -1.49148 40.5463 4.40191C48.606 17.8725 56.6601 31.3459 64.7143 44.8221C67.7701 49.9349 65.1373 56.3022 59.3736 57.7714C58.6166 57.9637 57.8457 58 57.0692 58C49.0541 58 41.0417 58 33.0265 58ZM33.007 52.2794C41.0389 52.2794 49.0708 52.2794 57.0998 52.2794C58.3133 52.2794 59.2957 51.8473 59.894 50.7657C60.4785 49.7063 60.3365 48.6665 59.7215 47.6405C51.6952 34.2341 43.6772 20.8248 35.6592 7.41272C34.3178 5.16576 31.7157 5.1797 30.3687 7.43503C27.9307 11.5219 25.4844 15.6005 23.0437 19.6846C17.447 29.0432 11.853 38.399 6.25633 47.7576C5.89453 48.3654 5.70529 49.0094 5.80547 49.7202C6.0309 51.3065 7.22761 52.2766 8.96702 52.2766C16.9794 52.2766 24.9946 52.2766 33.007 52.2766V52.2794Z" fill="#E95C0C"/>
<path d="M30.1739 26.2443C30.1739 24.2956 30.1544 22.3497 30.1822 20.4011C30.1989 19.2023 30.814 18.3325 31.8966 17.8697C32.9764 17.407 34.0201 17.5742 34.9218 18.352C35.6008 18.9403 35.8875 19.7125 35.8819 20.6129C35.8708 22.74 35.8819 24.8699 35.8791 26.997C35.8791 28.7115 35.8958 30.4232 35.868 32.1349C35.8457 33.4591 34.9496 34.5324 33.6944 34.8251C32.4281 35.1234 31.1535 34.563 30.5162 33.4312C30.2435 32.9461 30.1655 32.4192 30.1655 31.8672C30.1711 29.9911 30.1655 28.1177 30.1655 26.2415H30.1711L30.1739 26.2443Z" fill="#E95C0C"/>
<path d="M35.9097 43.6206C35.893 45.2152 34.5933 46.4864 32.9986 46.4669C31.4067 46.4474 30.1516 45.1455 30.1766 43.5369C30.1989 41.9563 31.4708 40.7101 33.0543 40.7213C34.6546 40.7296 35.9292 42.0232 35.9125 43.6206H35.9097Z" fill="#E95C0C"/>
</g>
<defs>
<clipPath id="clip0_17_7899">
<rect width="66" height="58" fill="white"/>
</clipPath>
</defs>
</svg>
