<svg xmlns="http://www.w3.org/2000/svg" enable-background="new 0 0 2000 2000" viewBox="0 0 2000 2000"><rect width="2000" height="2000" fill="#fff" fill-rule="evenodd" clip-rule="evenodd" display="none"/><path fill="#d5f0ff" d="M307.58,1359.79c19.22,29.67,207.5,255.11,359.27,257.85c136.87,2.47,181.26-195.94,325.02-181.25
	c107.05,10.94,120.67,124.87,244.7,164.42c121.91,38.87,283.1-8.02,364.25-95.77c422.15-456.43,199.57-1136.24-156.86-1327.9
	C1283.01,90.6,1185.1,329.93,847.07,287.13C643.8,261.4,681.66,139.61,506.53,220.41C303.32,314.16-25.45,845.69,307.58,1359.79z" display="none" opacity=".5"/><rect width="2000" height="2000" fill="#fff" fill-rule="evenodd" clip-rule="evenodd" opacity=".5"/><path fill="#d5f0ff" d="M1602.02,727.84c28.71,98.92,144.58,74.22,215.44,188.07c73.61,118.26,59.27,316.17-50.48,433.99
				c-111.36,119.55-276.48,108.88-356.99,103.68c-132.31-8.55-177.74-55.72-280.36-86.21
				c-359.21-106.72-592.92,236.56-818.42,113.74c-122.71-66.83-194.95-245.65-159.25-370.27c61.11-213.3,447.58-242.2,440.33-350.42
				c-6.09-90.94-279.76-82.08-314.79-217.77C246.09,421,427.85,265.92,551.4,198.95c56.95-30.87,223.88-124.6,350.76-53.72
				c100.38,56.08,88.86,159.18,178.89,186.33c108.55,32.73,163.32-105.66,322.27-113.5c117.11-5.78,259.74,60.84,285.57,168.18
				C1719.24,512.43,1567.39,608.54,1602.02,727.84z" opacity=".5"/><path fill="#d5f0ff" d="M1642.1,687.76c28.71,98.92,144.58,74.22,215.44,188.07c73.61,118.26,59.27,316.17-50.48,433.99
				c-111.36,119.55-276.48,108.88-356.99,103.68c-132.31-8.55-177.74-55.72-280.36-86.21
				c-359.21-106.72-592.92,236.56-818.42,113.74c-122.71-66.83-194.95-245.65-159.25-370.27c61.11-213.3,447.58-242.2,440.33-350.42
				c-6.09-90.94-279.76-82.08-314.79-217.77c-31.41-121.66,150.35-276.74,273.9-343.71c56.95-30.87,223.88-124.6,350.76-53.72
				c100.38,56.08,88.86,159.18,178.89,186.33c108.55,32.73,163.32-105.66,322.27-113.5c117.11-5.78,259.74,60.84,285.57,168.18
				C1759.32,472.35,1607.47,568.46,1642.1,687.76z" opacity=".5"/><circle cx="1487.99" cy="433.87" r="118.66" fill="#84b2fe" transform="rotate(-45.001 1487.989 433.889)"/><path fill="#fff" d="M1564.65,489.56c-11.41,10.31-29.95,9.39-67.03,7.54c-27.09-1.35-49.29-5.05-64.48-8.18v-65.57
					c1.33-0.71,2.64-1.51,3.91-2.4c27.18-19.05,20.42-68.07,34.37-69.68c6.85-0.79,13.91,10.4,16.72,16.72
					c9.18,20.67-5.22,38.51,1.39,44.83c9.71,9.28,42.67-27.92,65.5-18.82C1579.62,403.82,1589.88,466.76,1564.65,489.56z"/><path fill="#fff" d="M1417,494.81h-3.95c-6.44,0-11.66-5.22-11.66-11.66v-54.26c0-6.44,5.22-11.66,11.66-11.66h3.95
					c6.44,0,11.66,5.22,11.66,11.66v54.26C1428.66,489.59,1423.44,494.81,1417,494.81z"/><path fill="#62cbec" d="M338.85,531.68c58.11-6.42,107.03-235.43,30-305.82c-5.02-4.58-33.07-30.22-69.25-27.43
					c-38.99,3-63.05,37.14-65.81,41.05C175.06,322.81,280.31,538.15,338.85,531.68z"/><path fill="#bbe6f9" d="M331.56,539.03c58.11-6.42,107.03-235.43,30-305.82c-5.02-4.58-33.07-30.22-69.25-27.43
					c-38.99,3-63.05,37.14-65.81,41.05C167.77,330.16,273.02,545.5,331.56,539.03z"/><path fill="#fff" d="M358.01,613.1c0.03-0.01,0.06-0.02,0.1-0.04c1.4-0.55,2.08-2.15,1.51-3.57
							c-26.22-66.2-43.27-135.43-50.69-205.77c-5.93-56.23-5.67-113.2,0.78-169.32c0.17-1.51-0.9-2.91-2.4-3.11
							c-1.5-0.2-2.86,0.86-3.03,2.38c-6.5,56.52-6.76,113.9-0.79,170.55c7.47,70.84,24.65,140.57,51.06,207.25
							C355.1,612.86,356.63,613.57,358.01,613.1z"/><path fill="#fff" d="M301.75,325.14c0.54-0.19,1.02-0.54,1.35-1.05c0.83-1.26,0.48-2.98-0.78-3.85
							c-11.62-7.96-21.51-17.94-29.38-29.67c-7.63-11.37-13.05-23.9-16.1-37.24c-0.34-1.49-1.81-2.45-3.28-2.13
							c-1.47,0.32-2.39,1.79-2.04,3.29c3.21,14.02,8.9,27.19,16.92,39.14c8.28,12.33,18.67,22.82,30.88,31.18
							C300.06,325.32,300.96,325.42,301.75,325.14z"/><path fill="#fff" d="M308.34,440.42c0.76-0.26,1.39-0.87,1.67-1.7c0.48-1.44-0.3-3.02-1.73-3.53
							c-13.21-4.67-25.28-11.75-35.86-21.06c-10.25-9.02-18.68-19.75-25.04-31.9c-0.71-1.36-2.37-1.9-3.7-1.2
							c-1.33,0.7-1.83,2.36-1.12,3.72c6.68,12.76,15.54,24.04,26.31,33.52c11.12,9.78,23.8,17.23,37.69,22.14
							C307.16,440.63,307.78,440.61,308.34,440.42z"/><path fill="#fff" d="M316.29,370.44c10.74-3.73,20.78-9.08,29.93-15.97c11.27-8.47,20.73-18.92,28.1-31.04
							c0.79-1.29,0.38-3-0.91-3.82c-1.29-0.82-2.97-0.43-3.76,0.86c-7.01,11.53-16.01,21.47-26.74,29.53
							c-11.07,8.32-23.49,14.29-36.93,17.74c-1.46,0.38-2.32,1.88-1.92,3.36c0.4,1.48,1.9,2.38,3.36,2.01
							C310.42,372.34,313.38,371.45,316.29,370.44z"/><path fill="#fff" d="M323.25,502.5c0.14-0.05,0.28-0.11,0.41-0.18c12.77-6.99,23.89-16.31,33.03-27.68
							c8.86-11.02,15.49-23.51,19.71-37.13c0.45-1.45-0.36-3.02-1.8-3.5c-1.44-0.48-2.98,0.31-3.42,1.76
							c-4.01,12.96-10.33,24.85-18.76,35.33c-8.7,10.82-19.28,19.68-31.43,26.34c-1.32,0.72-1.79,2.4-1.05,3.75
							C320.6,502.4,322.02,502.93,323.25,502.5z"/><g><path fill="#75d9ef" d="M309.61,564.78c-23.88,35.97-189.96-9.5-209.82-83.91c-1.29-4.85-8.52-31.95,5.55-54.76
					c15.17-24.58,45.6-28.81,49.1-29.3C228.74,386.48,333.67,528.54,309.61,564.78z"/><path fill="#cdecf7" d="M316.87,562.49c-23.88,35.97-189.96-9.5-209.82-83.91c-1.29-4.85-8.52-31.95,5.55-54.76
					c15.17-24.58,45.6-28.81,49.1-29.3C236.01,384.18,340.93,526.24,316.87,562.49z"/><path fill="#fff" d="M356.27,604.94c-0.02,0.02-0.04,0.03-0.06,0.05c-0.83,0.73-2.11,0.64-2.85-0.22
							c-34.34-39.64-73.76-74.29-117.16-102.99c-34.7-22.95-71.98-42.08-110.8-56.85c-1.05-0.4-1.59-1.58-1.22-2.63
							c0.38-1.05,1.53-1.58,2.58-1.19c39.1,14.88,76.65,34.15,111.6,57.27c43.72,28.91,83.42,63.81,118,103.74
							C357.1,602.95,357.05,604.2,356.27,604.94z"/><path fill="#fff" d="M187.34,470.45c-0.3,0.29-0.7,0.48-1.15,0.53c-1.1,0.12-2.11-0.69-2.25-1.81
							c-1.26-10.33-4.43-20.2-9.42-29.34c-4.84-8.86-11.18-16.66-18.86-23.19c-0.86-0.73-0.98-2.02-0.28-2.88
							c0.71-0.86,1.98-0.96,2.84-0.23c8.07,6.86,14.74,15.06,19.82,24.37c5.24,9.61,8.57,19.99,9.9,30.84
							C188.03,469.4,187.79,470.03,187.34,470.45z"/><path fill="#fff" d="M260.37,513.83c-0.43,0.41-1.04,0.62-1.68,0.52c-1.1-0.18-1.87-1.22-1.72-2.33
							c1.43-10.26,0.89-20.58-1.6-30.68c-2.41-9.79-6.57-18.96-12.34-27.25c-0.65-0.93-0.44-2.2,0.47-2.84
							c0.91-0.64,2.17-0.4,2.81,0.53c6.07,8.71,10.43,18.35,12.97,28.63c2.62,10.62,3.19,21.46,1.68,32.24
							C260.9,513.12,260.68,513.53,260.37,513.83z"/><path fill="#fff" d="M211.98,495.34c-6.08,5.79-12.97,10.56-20.57,14.24c-9.35,4.53-19.37,7.2-29.78,7.93
							c-1.11,0.08-2.09-0.77-2.18-1.89c-0.1-1.12,0.73-2.1,1.83-2.18c9.91-0.7,19.44-3.24,28.34-7.55
							c9.18-4.45,17.29-10.58,24.09-18.24c0.74-0.83,2.01-0.89,2.85-0.13c0.83,0.76,0.91,2.05,0.17,2.88
							C215.21,492.13,213.63,493.77,211.98,495.34z"/><path fill="#fff" d="M295.84,544.66c-0.08,0.07-0.16,0.14-0.26,0.21c-8.89,6.02-18.74,10.16-29.26,12.31
							c-10.2,2.08-20.6,2.2-30.92,0.36c-1.1-0.2-1.85-1.26-1.67-2.36c0.18-1.11,1.21-1.85,2.31-1.65
							c9.82,1.75,19.72,1.64,29.42-0.34c10.01-2.05,19.38-5.99,27.84-11.71c0.92-0.62,2.17-0.36,2.8,0.58
							C296.67,542.88,296.54,543.99,295.84,544.66z"/></g><g><path fill="#75d9ef" d="M987.91,604.21c-37.65-32.05,36.67-214.68,123.99-227.12c5.69-0.81,37.49-5.34,61.5,13.77
				c25.88,20.6,26.54,55.77,26.62,59.81C1201.64,536.56,1025.84,636.49,987.91,604.21z"/><path fill="#cdecf7" d="M989.53,612.78c-37.65-32.05,36.67-214.68,123.99-227.12c5.69-0.81,37.49-5.34,61.5,13.77
				c25.88,20.6,26.54,55.77,26.62,59.81C1203.26,545.13,1027.46,645.07,989.53,612.78z"/><path fill="#fff" d="M935.89,651.79c-0.02-0.02-0.03-0.05-0.05-0.07c-0.72-1.05-0.44-2.48,0.63-3.21
						c49.75-33.64,94.51-73.74,133.06-119.17c30.82-36.33,57.64-76.11,79.73-118.23c0.6-1.14,2.01-1.6,3.16-1.02
						c1.15,0.57,1.59,1.96,1,3.09c-22.25,42.43-49.27,82.5-80.31,119.09c-38.82,45.76-83.91,86.15-134.02,120.03
						C938.04,653,936.63,652.77,935.89,651.79z"/><path fill="#fff" d="M1111.82,478.05c-0.29-0.38-0.45-0.86-0.45-1.38c0.02-1.27,1.08-2.31,2.37-2.31
						c11.91-0.02,23.57-2.28,34.64-6.71c10.73-4.29,20.47-10.44,28.93-18.28c0.95-0.88,2.43-0.84,3.31,0.08
						c0.88,0.92,0.82,2.38-0.13,3.26c-8.9,8.24-19.13,14.7-30.41,19.21c-11.64,4.65-23.89,7.02-36.41,7.05
						C1112.91,478.97,1112.24,478.61,1111.82,478.05z"/><path fill="#fff" d="M1052.54,555.16c-0.41-0.55-0.56-1.27-0.36-1.98c0.35-1.23,1.64-1.96,2.89-1.63
						c11.46,3.02,23.27,3.82,35.1,2.36c11.46-1.41,22.45-4.88,32.66-10.32c1.14-0.61,2.56-0.2,3.16,0.92
						c0.6,1.12,0.16,2.52-0.98,3.13c-10.73,5.71-22.28,9.36-34.32,10.84c-12.43,1.53-24.84,0.7-36.89-2.48
						C1053.28,555.87,1052.84,555.56,1052.54,555.16z"/><path fill="#fff" d="M1080.16,502.67c-5.75-7.7-10.24-16.19-13.39-25.32c-3.88-11.25-5.55-23.01-4.96-34.94
						c0.06-1.27,1.16-2.27,2.45-2.22c1.29,0.04,2.29,1.11,2.22,2.38c-0.56,11.36,1.03,22.54,4.72,33.25
						c3.81,11.05,9.68,21.1,17.45,29.88c0.84,0.95,0.73,2.41-0.25,3.25c-0.98,0.84-2.46,0.76-3.3-0.2
						C1083.37,506.78,1081.71,504.76,1080.16,502.67z"/><path fill="#fff" d="M1012.67,591.29c-0.07-0.1-0.14-0.21-0.2-0.32c-5.63-10.93-9-22.69-10.01-34.95
						c-0.98-11.88,0.3-23.72,3.8-35.2c0.37-1.22,1.68-1.93,2.92-1.58c1.24,0.35,1.94,1.63,1.56,2.85
						c-3.33,10.93-4.55,22.2-3.62,33.5c0.96,11.66,4.17,22.85,9.52,33.25c0.58,1.13,0.12,2.52-1.04,3.11
						C1014.57,592.48,1013.33,592.18,1012.67,591.29z"/></g><g><path fill="#62cbec" d="M1310.44,1844.96c42.62,27.09,199.4-100.73,185.57-189.8c-0.9-5.8-5.94-38.24-31.82-55.92
						c-27.89-19.06-62.55-9.07-66.53-7.93C1313.04,1615.69,1267.51,1817.67,1310.44,1844.96z"/><path fill="#bbe6f9" d="M1301.56,1845.97c42.62,27.09,199.4-100.73,185.57-189.8c-0.9-5.8-5.94-38.24-31.82-55.92
						c-27.89-19.06-62.55-9.07-66.53-7.93C1304.15,1616.7,1258.63,1818.67,1301.56,1845.97z"/><path fill="#fff" d="M1279.33,1910.16c0.03,0.01,0.06,0.02,0.08,0.03c1.24,0.39,2.56-0.32,2.95-1.59
								c18.14-58.77,44.08-114.63,77.11-166.02c26.41-41.09,57.39-79.33,92.08-113.64c0.94-0.93,0.96-2.45,0.06-3.39
								c-0.9-0.95-2.39-0.96-3.33-0.04c-34.94,34.56-66.14,73.08-92.74,114.46c-33.27,51.76-59.4,108.03-77.67,167.22
								C1277.49,1908.43,1278.14,1909.74,1279.33,1910.16z"/><path fill="#fff" d="M1397.12,1685.76c0.46,0.16,0.98,0.18,1.48,0.02c1.24-0.4,1.94-1.75,1.56-3.01
								c-3.53-11.64-4.79-23.71-3.75-35.88c1-11.78,4.13-23.15,9.29-33.8c0.58-1.19,0.1-2.63-1.06-3.21
								c-1.16-0.58-2.58-0.08-3.15,1.11c-5.42,11.18-8.71,23.13-9.76,35.52c-1.09,12.78,0.24,25.47,3.94,37.7
								C1395.89,1684.97,1396.45,1685.52,1397.12,1685.76z"/><path fill="#fff" d="M1339.23,1766.98c0.66,0.23,1.41,0.17,2.04-0.24c1.1-0.71,1.43-2.2,0.74-3.31
								c-6.38-10.29-10.67-21.58-12.77-33.58c-2.03-11.62-1.9-23.41,0.38-35.03c0.26-1.3-0.57-2.56-1.84-2.81
								c-1.27-0.25-2.51,0.6-2.77,1.9c-2.4,12.21-2.53,24.6-0.4,36.81c2.2,12.61,6.72,24.48,13.42,35.29
								C1338.32,1766.48,1338.75,1766.81,1339.23,1766.98z"/><path fill="#fff" d="M1382.43,1724.14c9.26,3.29,18.91,5.12,28.8,5.43c12.18,0.39,24.19-1.54,35.71-5.72
								c1.23-0.45,1.88-1.82,1.45-3.07c-0.43-1.25-1.77-1.9-3-1.45c-10.96,3.98-22.39,5.81-33.98,5.44
								c-11.96-0.38-23.55-3.08-34.47-8.02c-1.19-0.53-2.58,0.01-3.11,1.22c-0.53,1.21-0.01,2.63,1.18,3.17
								C1377.45,1722.25,1379.93,1723.24,1382.43,1724.14z"/><path fill="#fff" d="M1315.72,1816.87c0.12,0.04,0.24,0.08,0.37,0.1c12.39,2.2,24.91,1.93,37.22-0.79
								c11.93-2.63,23.15-7.46,33.35-14.36c1.09-0.73,1.39-2.22,0.68-3.33c-0.71-1.1-2.17-1.4-3.26-0.67
								c-9.71,6.56-20.39,11.15-31.74,13.66c-11.71,2.59-23.63,2.84-35.41,0.75c-1.28-0.23-2.5,0.65-2.74,1.95
								C1313.98,1815.37,1314.65,1816.49,1315.72,1816.87z"/><g><path fill="#75d9ef" d="M1272.84,1851.45c-35.54,11.32-122.83-109.11-95.97-169.98c1.75-3.96,11.53-26.13,33.35-33.89
						c23.51-8.36,46.3,5.25,48.92,6.81C1314.78,1687.61,1308.65,1840.04,1272.84,1851.45z"/><path fill="#cdecf7" d="M1278.98,1853.83c-35.54,11.32-122.83-109.11-95.97-169.98c1.75-3.96,11.53-26.13,33.35-33.89
						c23.51-8.36,46.3,5.25,48.92,6.81C1320.91,1689.99,1314.78,1842.42,1278.98,1853.83z"/><path fill="#fff" d="M1282.56,1903.73c-0.02,0-0.04,0-0.07,0c-0.96,0.04-1.76-0.71-1.8-1.69
								c-1.7-45.27-9.52-89.93-23.24-132.73c-10.97-34.22-25.74-67.27-43.9-98.21c-0.49-0.84-0.22-1.92,0.6-2.43
								c0.82-0.51,1.89-0.24,2.38,0.6c18.29,31.17,33.17,64.45,44.22,98.92c13.82,43.11,21.69,88.09,23.4,133.69
								C1284.2,1902.84,1283.49,1903.65,1282.56,1903.73z"/><path fill="#fff" d="M1241.49,1721.79c-0.36,0.03-0.73-0.05-1.06-0.26c-0.81-0.52-1.05-1.61-0.53-2.44
								c4.74-7.64,7.94-16,9.52-24.86c1.53-8.58,1.48-17.27-0.16-25.82c-0.18-0.96,0.43-1.89,1.37-2.09
								c0.94-0.2,1.85,0.42,2.04,1.38c1.73,8.98,1.79,18.11,0.17,27.13c-1.66,9.31-5.03,18.1-10.01,26.12
								C1242.52,1721.46,1242.01,1721.74,1241.49,1721.79z"/><path fill="#fff" d="M1267.22,1790.5c-0.51,0.04-1.04-0.14-1.41-0.56c-0.65-0.71-0.6-1.83,0.11-2.5
								c6.51-6.14,11.73-13.38,15.51-21.53c3.67-7.9,5.83-16.32,6.42-25.03c0.07-0.97,0.89-1.72,1.85-1.66
								c0.96,0.06,1.68,0.9,1.61,1.87c-0.62,9.15-2.89,18-6.75,26.3c-3.98,8.57-9.46,16.18-16.3,22.63
								C1267.96,1790.31,1267.6,1790.47,1267.22,1790.5z"/><path fill="#fff" d="M1244.63,1751.88c-7.22,0.61-14.45,0.1-21.56-1.53c-8.75-2.01-16.94-5.63-24.35-10.76
								c-0.79-0.55-0.99-1.65-0.45-2.46c0.54-0.81,1.62-1.02,2.41-0.47c7.05,4.89,14.85,8.33,23.17,10.24
								c8.59,1.97,17.37,2.22,26.09,0.74c0.95-0.16,1.83,0.49,1.98,1.45c0.15,0.96-0.5,1.87-1.44,2.03
								C1248.54,1751.47,1246.58,1751.72,1244.63,1751.88z"/><path fill="#fff" d="M1274.45,1830.44c-0.09,0.01-0.19,0.01-0.28,0c-9.24-0.76-18.12-3.29-26.37-7.53
								c-8-4.11-15.07-9.65-21.02-16.47c-0.63-0.73-0.57-1.85,0.15-2.5c0.72-0.65,1.81-0.59,2.45,0.13
								c5.67,6.49,12.4,11.77,20.01,15.68c7.85,4.04,16.29,6.45,25.09,7.17c0.95,0.08,1.66,0.93,1.58,1.9
								C1275.97,1829.7,1275.28,1830.37,1274.45,1830.44z"/></g><g><path fill="#75d9ef" d="M1242.79,1858.56c-28.57,31.74-184.5-36.79-193.15-112.48c-0.56-4.93-3.72-32.5,13.36-52.78
					c18.4-21.85,48.79-21.59,52.28-21.56C1189.47,1672.39,1271.58,1826.58,1242.79,1858.56z"/><path fill="#cdecf7" d="M1250.23,1857.36c-28.57,31.74-184.5-36.79-193.15-112.48c-0.56-4.93-3.72-32.5,13.36-52.78
					c18.4-21.85,48.79-21.59,52.28-21.56C1196.91,1671.19,1279.02,1825.38,1250.23,1857.36z"/><path fill="#fff" d="M1282.63,1904.61c-0.02,0.01-0.04,0.03-0.06,0.04c-0.92,0.6-2.15,0.32-2.75-0.62
							c-27.86-43.76-61.42-83.37-99.73-117.74c-30.63-27.48-64.34-51.59-100.19-71.67c-0.97-0.54-1.33-1.77-0.81-2.75
							c0.52-0.98,1.73-1.33,2.69-0.79c36.11,20.22,70.06,44.51,100.91,72.19c38.59,34.61,72.39,74.51,100.45,118.59
							C1283.74,1902.78,1283.5,1903.99,1282.63,1904.61z"/><path fill="#fff" d="M1136.81,1748.55c-0.34,0.24-0.75,0.37-1.2,0.35c-1.1-0.04-1.97-0.98-1.94-2.1
							c0.26-10.29-1.41-20.4-4.97-30.08c-3.45-9.37-8.53-17.92-15.1-25.42c-0.74-0.84-0.67-2.12,0.15-2.85
							c0.81-0.74,2.07-0.65,2.81,0.19c6.9,7.88,12.24,16.87,15.86,26.71c3.74,10.16,5.5,20.8,5.22,31.61
							C1137.64,1747.63,1137.31,1748.21,1136.81,1748.55z"/><path fill="#fff" d="M1201.98,1801.57c-0.48,0.34-1.11,0.46-1.72,0.27c-1.05-0.33-1.65-1.47-1.34-2.53
							c2.88-9.83,3.85-20.01,2.87-30.25c-0.95-9.93-3.68-19.5-8.13-28.45c-0.5-1-0.11-2.21,0.87-2.71c0.98-0.49,2.18-0.08,2.68,0.92
							c4.68,9.4,7.55,19.46,8.55,29.89c1.03,10.77,0.01,21.46-3.02,31.79C1202.61,1800.96,1202.34,1801.33,1201.98,1801.57z"/><path fill="#fff" d="M1157.32,1776.48c-6.79,4.78-14.22,8.46-22.19,10.96c-9.81,3.08-20,4.24-30.29,3.45
							c-1.1-0.08-1.93-1.06-1.86-2.17c0.07-1.11,1.01-1.95,2.11-1.86c9.79,0.75,19.49-0.35,28.82-3.28
							c9.63-3.02,18.45-7.85,26.22-14.36c0.84-0.7,2.1-0.58,2.8,0.29c0.71,0.87,0.59,2.14-0.25,2.84
							C1160.94,1773.81,1159.15,1775.18,1157.32,1776.48z"/><path fill="#fff" d="M1232.23,1836.87c-0.09,0.06-0.18,0.12-0.28,0.17c-9.57,4.6-19.81,7.23-30.41,7.81
							c-10.28,0.56-20.47-0.82-30.31-4.12c-1.05-0.35-1.63-1.5-1.3-2.56c0.33-1.06,1.45-1.63,2.5-1.28
							c9.35,3.14,19.06,4.46,28.84,3.92c10.09-0.55,19.83-3.05,28.94-7.43c0.99-0.47,2.18-0.04,2.66,0.97
							C1233.3,1835.25,1233.01,1836.32,1232.23,1836.87z"/></g></g><path fill="#dfe6ff" d="M1199.47,1334.2"/><path fill="#84b2fe" d="M1200.77,1444.88"/><g><path fill="#4654d3" d="M900.64,525.03H303.68c-31.25,0-56.59,29.48-56.59,65.86v1242.1c0,36.37,25.33,65.86,56.59,65.86h596.96
					c31.25,0,56.59-29.48,56.59-65.86V590.89C957.23,554.52,931.89,525.03,900.64,525.03z"/><path fill="#8183f1" d="M955.55,525.03H358.6c-31.25,0-56.59,29.48-56.59,65.86v1242.1c0,36.37,25.33,65.86,56.59,65.86h596.96
					c31.25,0,56.59-29.48,56.59-65.86V590.89C1012.14,554.52,986.8,525.03,955.55,525.03z"/><path fill="#fff" d="M984.53,606.48v1164.78H329.62V606.48h242.97c2.34,13.44,12.55,23.55,24.79,23.55h119.41
					c6.98,0,13.31-3.3,17.88-8.62c3.44-4.01,5.89-9.16,6.9-14.93H984.53z"/><path fill="#444bcc" d="M707.24,612H606.91c-6.83,0-12.37-6.44-12.37-14.39l0,0c0-7.95,5.54-14.39,12.37-14.39h100.34
					c6.83,0,12.37,6.44,12.37,14.39l0,0C719.61,605.56,714.07,612,707.24,612z"/><g><path fill="#ffcdad" d="M1255.44,801.73c2.94-3.46,11.83-13.92,19.67-20.06c26.84-21.03,88.93-28.68,104.38-1.5
					c1.39,2.44,1.51,4.59,1.81,6.83c2.84,21.56-16.34,48.73-38.18,53.34c-24.91,5.26-40.79-21.45-58.37-12.58
					c-12.49,6.3-10.48,22.58-22.05,25.24c-9.98,2.29-23.63-7.68-25.71-18.63C1235.28,825.45,1242,817.54,1255.44,801.73z"/><path fill="#0643a3" d="M826.15,1771.24h-174.6c-1.01,0.04-2.02,0.04-3.02,0c-65.42-2.33-113.32-155.96-141.88-279.23
					c8.72-3.71,17.42-7.43,26.14-11.14h0.01c38.55-16.41,77.09-32.83,115.63-49.24c9.45-4.03,18.9-8.05,28.35-12.08
					c11.14-4.74,22.29-9.49,33.43-14.23c6.66,16.71,14.89,37.95,24.05,62.88v0.01c0,0.01,0.01,0.02,0.01,0.03
					c0.67,1.84,1.35,3.69,2.04,5.57c3.84,10.54,7.84,21.7,11.93,33.42C765.99,1558.04,798.61,1652.56,826.15,1771.24z"/><path fill="#0643a3" d="M651.55,1771.24c-62.41,0-124.83,0-187.24,0c-6.52-52.48-14.51-99.05-13.24-183.59
					c0.79-52.78,4.86-98.9,9.48-135.81v-0.01c2.29-18.28,4.7-34.29,6.93-47.74c59.04-6.98,118.07-13.96,177.11-20.94h0.01
					c0.01,0,0.01,0,0.02,0v0.03c1.2,13.55,2.52,29.85,3.81,48.45c1.23,17.99,2.43,38.15,3.42,60.06c0,0,0.05,1.08,0.1,2.14
					C653.52,1527.78,651.92,1726.74,651.55,1771.24z"/><path fill="#f9a83d" d="M655.16,996.96c80.96-58.5,177.66-2.23,286.43-6.94c79.3-3.44,185.65-40.19,309.11-182.01
					c7.33,2.07,25.71,8.34,39.91,26.2c8.15,10.26,11.93,20.57,13.78,27.34c-62.87,79.11-169.78,184.21-328.65,232.21
					c-151.28,45.7-352.46,40.47-370.07-17.02C597.28,1049.36,631.71,1013.9,655.16,996.96z"/><path fill="#f09c23" d="M763.5,1009.73c37.82,40.33,41.48,88.29,43.43,113.87c3.71,48.62-9.66,86.59-27.02,135.93
					c-4.13,11.73-7.77,20.9-11.1,28.61c-13.88,32.23-23.11,54.58-25.55,60.22c-9.09,20.96-16.92,56.69-8.88,120.86
					c-14.84,7.62-36.97,17.05-65.08,22.16c-35.93,6.54-63.84,2.52-86.45-0.37c-54.87-7.02-96.91-25.53-122.71-39.39
					c-23.66-126.01-12.32-225.17-0.4-285.49c20.85-105.57,53.16-141.32,72.1-158.24c12.4-11.07,56.62-50.57,122.21-47.84
					C663.51,960.44,720.35,963.71,763.5,1009.73z"/><path fill="#ffcdad" d="M738.78,939.31c2.08,33.51-6.94,60.44-13.8,76.18c-6.6,20.43-26.92,33.09-47.36,30.14
							c-21.87-3.15-38.34-23.36-36.83-46.35c0.64-25.58,2.93-54.75,8.19-86.6c6.11-36.99,14.88-69.42,23.98-96.65
							C683.5,824.67,734.37,868.16,738.78,939.31z"/><path fill="#ffcdad" d="M800.73,799.14c12.11,14.18,14.39,29.97,16.85,47.04c2.11,14.63,13.85,96.04-35.84,123.72
								c-34.43,19.18-81.93,3.44-108.6-23.05c-39.84-39.57-47.01-116.84-2.45-154.33C708.5,760.73,772.86,766.53,800.73,799.14z"/><path fill="#060352" d="M810.95,841.29c1.59-0.69,22.49-10.07,31.41-31.82c10.88-26.52,0.2-62.24-19.58-70.73
								c-9.99-4.29-14.84,1.56-35.86,3.71c-30.9,3.16-43.33-7.14-67.37-8.5c-4.66-0.26-48.58-1.38-74.02,24.25
								c-42.78,43.1-7.73,136.32,4.18,136.03c9.21-0.23-0.28-56.28,29.58-72.48C714.59,802.59,761.65,862.57,810.95,841.29z"/><path fill="#fff" d="M779.3,948.03c-9.61,1.17-25.34,1.67-43.41-4.5c-13.01-4.44-22.98-10.88-29.78-16.14
								c0.97,3.57,6.25,21.77,22.56,30.55C744.6,966.52,764.65,962.64,779.3,948.03z"/><path fill="#66f" d="M657.1,966.21"/><g><path fill="#084db2" d="M1157.2,1150.2"/><path fill="#84b2fe" d="M951.26,800.31h6.24c1.12,0,2.23,0.04,3.32,0.13c23.44,1.69,41.93,21.25,41.93,45.13v21.4v48.76h-96.75
						v-70.17C906.01,820.58,926.27,800.31,951.26,800.31z"/><path fill="#2c7efe" d="M1125.07,1052.31"/><path fill="#2c7efe" d="M1126.69,1189.62"/><path fill="#fff" d="M1426.77,800.31c36.07,0,65.31,29.23,65.31,65.3v8.36h0.79v640.98c0.04,3.71,0.64,18.5,12.18,30.88
						c8.49,9.12,18.45,12.14,22.65,13.16c-153.47,0.41-306.94,0.81-460.41,1.21c-5.24,0.28-24.74,0.7-42.15-13.17
						c-23.97-19.1-23.29-48.83-23.16-52.13c0-2.79,0-5.57,0-8.36c0,1.09,0,2.18,0,3.27c-0.26-214.75-0.52-429.5-0.79-644.24
						c0-23.88-18.49-43.44-41.93-45.13C1115.09,800.39,1270.93,800.35,1426.77,800.31z"/><path fill="#2c7efe" d="M1132.11,1018.79h-84.96c-3.44,0-6.23-2.79-6.23-6.23v-84.96c0-3.44,2.79-6.23,6.23-6.23h84.96
							c3.44,0,6.23,2.79,6.23,6.23v84.96C1138.34,1016,1135.55,1018.79,1132.11,1018.79z M1053.38,1006.32h72.49v-72.49h-72.49
							V1006.32z"/><path fill="#2c7efe" d="M1088.43,1002.16c-1.65,0-3.24-0.65-4.41-1.83l-22.84-22.84c-2.43-2.43-2.43-6.38,0-8.82
							c2.43-2.43,6.38-2.43,8.82,0l18.02,18.02c9.14-10.49,19.57-19.74,31.09-27.58c13.31-9.05,27.85-16.06,43.22-20.84
							c3.29-1.02,6.78,0.82,7.8,4.11c1.02,3.29-0.82,6.78-4.11,7.8c-14.19,4.41-27.62,10.88-39.9,19.24
							c-12.41,8.44-23.45,18.67-32.82,30.4c-1.11,1.39-2.75,2.24-4.52,2.33C1088.66,1002.15,1088.54,1002.16,1088.43,1002.16z"/><path fill="#2c7efe" d="M1135.32,1336.05h-84.96c-3.44,0-6.23-2.79-6.23-6.23v-84.96c0-3.44,2.79-6.23,6.23-6.23h84.96
								c3.44,0,6.23,2.79,6.23,6.23v84.96C1141.56,1333.26,1138.77,1336.05,1135.32,1336.05z M1056.6,1323.58h72.49v-72.49h-72.49
								V1323.58z"/><path fill="#2c7efe" d="M1091.64,1319.42c-1.65,0-3.24-0.65-4.41-1.83l-22.84-22.84c-2.43-2.43-2.43-6.38,0-8.82
								c2.43-2.43,6.38-2.43,8.82,0l18.02,18.02c9.14-10.49,19.57-19.74,31.09-27.58c13.31-9.05,27.85-16.06,43.22-20.84
								c3.29-1.02,6.78,0.82,7.8,4.11c1.02,3.29-0.82,6.78-4.11,7.8c-14.19,4.41-27.62,10.88-39.9,19.24
								c-12.41,8.44-23.45,18.67-32.82,30.4c-1.11,1.39-2.75,2.23-4.52,2.33C1091.87,1319.42,1091.76,1319.42,1091.64,1319.42z"/><path fill="none" d="M1358.54,955.88c33.48,0,66.96,0,100.43,0"/><path fill="#2c7efe" d="M1458.97,961.36h-100.43c-3.02,0-5.48-2.45-5.48-5.48c0-3.02,2.45-5.48,5.48-5.48h100.43
								c3.02,0,5.48,2.45,5.48,5.48C1464.45,958.91,1462,961.36,1458.97,961.36z"/><path fill="none" d="M1226.61,955.88c37.64,0,75.28,0,112.91,0"/><path fill="#2c7efe" d="M1339.53,961.36h-112.91c-3.02,0-5.48-2.45-5.48-5.48c0-3.02,2.45-5.48,5.48-5.48h112.91
								c3.02,0,5.48,2.45,5.48,5.48C1345,958.91,1342.55,961.36,1339.53,961.36z"/><path fill="none" d="M1226.61,926.84c77.45,0,154.91,0,232.36,0"/><path fill="#2c7efe" d="M1458.97,932.31h-232.36c-3.02,0-5.48-2.45-5.48-5.48c0-3.02,2.45-5.48,5.48-5.48h232.36
								c3.02,0,5.48,2.45,5.48,5.48C1464.45,929.86,1462,932.31,1458.97,932.31z"/><path fill="none" d="M1414.87,984.93c14.7,0,29.4,0,44.1,0"/><path fill="#2c7efe" d="M1458.97,990.41h-44.1c-3.02,0-5.48-2.45-5.48-5.48c0-3.02,2.45-5.48,5.48-5.48h44.1
								c3.02,0,5.48,2.45,5.48,5.48C1464.45,987.95,1462,990.41,1458.97,990.41z"/><path fill="none" d="M1226.61,984.93c56.88,0,113.77,0,170.65,0"/><path fill="#2c7efe" d="M1397.27,990.41h-170.65c-3.02,0-5.48-2.45-5.48-5.48c0-3.02,2.45-5.48,5.48-5.48h170.65
								c3.02,0,5.48,2.45,5.48,5.48C1402.74,987.95,1400.29,990.41,1397.27,990.41z"/><g><path fill="none" d="M1226.61,1281.86c77.45,0,154.91,0,232.36,0"/><path fill="#2c7efe" d="M1458.97,1287.34h-232.36c-3.02,0-5.48-2.45-5.48-5.48c0-3.02,2.45-5.48,5.48-5.48h232.36
								c3.02,0,5.48,2.45,5.48,5.48C1464.45,1284.88,1462,1287.34,1458.97,1287.34z"/><path fill="none" d="M1226.61,1252.81c77.45,0,154.91,0,232.36,0"/><path fill="#2c7efe" d="M1458.97,1258.29h-232.36c-3.02,0-5.48-2.45-5.48-5.48c0-3.02,2.45-5.48,5.48-5.48h232.36
								c3.02,0,5.48,2.45,5.48,5.48C1464.45,1255.84,1462,1258.29,1458.97,1258.29z"/><g><path fill="none" d="M1414.87,1310.91c14.7,0,29.4,0,44.1,0"/><path fill="#2c7efe" d="M1458.97,1316.38h-44.1c-3.02,0-5.48-2.45-5.48-5.48c0-3.02,2.45-5.48,5.48-5.48h44.1
								c3.02,0,5.48,2.45,5.48,5.48C1464.45,1313.93,1462,1316.38,1458.97,1316.38z"/></g><g><path fill="none" d="M1226.61,1310.91c56.88,0,113.77,0,170.65,0"/><path fill="#2c7efe" d="M1397.27,1316.38h-170.65c-3.02,0-5.48-2.45-5.48-5.48c0-3.02,2.45-5.48,5.48-5.48h170.65
								c3.02,0,5.48,2.45,5.48,5.48C1402.74,1313.93,1400.29,1316.38,1397.27,1316.38z"/></g></g><g><path fill="#2c7efe" d="M1134.27,1491.85h-84.96c-3.44,0-6.23-2.79-6.23-6.23v-84.96c0-3.44,2.79-6.23,6.23-6.23h84.96
							c3.44,0,6.23,2.79,6.23,6.23v84.96C1140.5,1489.06,1137.71,1491.85,1134.27,1491.85z M1055.54,1479.38h72.49v-72.49h-72.49
							V1479.38z"/></g><g><path fill="none" d="M1226.6,1428.94c46.81,0,93.62,0,140.43,0"/><path fill="#2c7efe" d="M1367.04,1434.42H1226.6c-1.83,0-3.31-2.45-3.31-5.48c0-3.02,1.48-5.48,3.31-5.48h140.43
							c1.83,0,3.31,2.45,3.31,5.48C1370.35,1431.97,1368.87,1434.42,1367.04,1434.42z"/></g><g><path fill="none" d="M1228.77,1399.9c77.45,0,154.91,0,232.36,0"/><path fill="#2c7efe" d="M1461.13,1405.37h-232.36c-3.02,0-5.48-2.45-5.48-5.48c0-3.02,2.45-5.48,5.48-5.48h232.36
							c3.02,0,5.48,2.45,5.48,5.48C1466.61,1402.92,1464.16,1405.37,1461.13,1405.37z"/></g><g><path fill="none" d="M1305.73,1119.42c51.08,0,102.16,0,153.24,0"/><path fill="#2c7efe" d="M1458.97,1124.9h-153.24c-3.03,0-5.48-2.45-5.48-5.48c0-3.02,2.45-5.48,5.48-5.48h153.24
								c3.02,0,5.48,2.45,5.48,5.48C1464.45,1122.44,1462,1124.9,1458.97,1124.9z"/><path fill="none" d="M1226.61,1119.42c18.82,0,37.64,0,56.46,0"/><path fill="#2c7efe" d="M1283.07,1124.9h-56.46c-3.02,0-5.48-2.45-5.48-5.48c0-3.02,2.45-5.48,5.48-5.48h56.46
								c3.02,0,5.48,2.45,5.48,5.48C1288.55,1122.44,1286.09,1124.9,1283.07,1124.9z"/><g><path fill="none" d="M1226.61,1090.37c77.45,0,154.91,0,232.36,0"/><path fill="#2c7efe" d="M1458.97,1095.85h-232.36c-3.02,0-5.48-2.45-5.48-5.48c0-3.02,2.45-5.48,5.48-5.48h232.36
								c3.02,0,5.48,2.45,5.48,5.48C1464.45,1093.4,1462,1095.85,1458.97,1095.85z"/></g><g><path fill="none" d="M1226.61,1148.46c56.88,0,113.77,0,170.65,0"/><path fill="#2c7efe" d="M1397.27,1153.94h-170.65c-3.02,0-5.48-2.45-5.48-5.48s2.45-5.48,5.48-5.48h170.65
								c3.02,0,5.48,2.45,5.48,5.48S1400.29,1153.94,1397.27,1153.94z"/></g></g><g><path fill="#0643a3" d="M1165.55,885.41c-2.55,0-5-0.49-7.34-1.46c-2.34-0.98-4.23-2.24-5.66-3.8l2.51-7.93
							c1.37,1.39,2.99,2.52,4.86,3.41c1.87,0.89,3.76,1.33,5.68,1.33c1.46,0,2.64-0.2,3.54-0.62c0.9-0.41,1.56-0.98,1.98-1.72
							c0.43-0.74,0.64-1.58,0.64-2.53c0-1.21-0.33-2.18-1-2.89c-0.67-0.71-1.55-1.3-2.65-1.75c-1.09-0.45-2.3-0.89-3.63-1.3
							c-1.32-0.41-2.65-0.92-3.97-1.53c-1.32-0.61-2.53-1.39-3.63-2.34c-1.09-0.95-1.98-2.21-2.67-3.77
							c-0.68-1.56-1.03-3.55-1.03-5.98c0-2.6,0.49-4.97,1.48-7.12c0.99-2.14,2.48-3.86,4.47-5.13c1.99-1.28,4.49-1.92,7.5-1.92
							c2.01,0,3.98,0.34,5.93,1.01c1.95,0.67,3.66,1.68,5.15,3.02l-2.28,7.99c-1.49-1.21-2.98-2.11-4.47-2.7
							c-1.49-0.59-2.95-0.88-4.38-0.88c-1.43,0-2.6,0.24-3.51,0.71c-0.91,0.48-1.57,1.09-1.96,1.85c-0.4,0.76-0.59,1.64-0.59,2.63
							c0,1.17,0.33,2.11,1,2.83c0.67,0.71,1.55,1.29,2.65,1.72c1.09,0.43,2.3,0.87,3.63,1.3c1.32,0.43,2.65,0.93,3.97,1.49
							c1.32,0.56,2.53,1.32,3.63,2.27c1.09,0.95,1.98,2.21,2.67,3.77c0.68,1.56,1.03,3.53,1.03,5.91c0,2.56-0.5,4.9-1.51,7.02
							c-1,2.12-2.5,3.83-4.49,5.13C1171.11,884.76,1168.59,885.41,1165.55,885.41z"/><path fill="#0643a3" d="M1198.35,885.41c-4.53,0-8.07-1.8-10.63-5.39c-2.55-3.6-3.83-8.73-3.83-15.4v-25.47h7.39v25.08
							c0,4.33,0.62,7.45,1.87,9.36c1.25,1.91,2.99,2.86,5.25,2.86c2.25,0,4-0.95,5.25-2.86c1.25-1.91,1.87-5.03,1.87-9.36v-25.08
							h7.3v25.47c0,6.67-1.28,11.81-3.83,15.4C1206.42,883.61,1202.88,885.41,1198.35,885.41z"/><path fill="#0643a3" d="M1220.11,884.63v-45.49h13.82c2.86,0,5.32,0.66,7.39,1.98c2.07,1.32,3.66,3.22,4.79,5.69
							c1.12,2.47,1.69,5.42,1.69,8.84c0,3.38-0.56,6.29-1.69,8.74c-1.13,2.45-2.72,4.32-4.79,5.62c-2.07,1.3-4.53,1.95-7.39,1.95
							h-9.72l3.28-4.61v17.29H1220.11z M1227.5,868.51l-3.28-4.94h9.31c2.28,0,3.98-0.7,5.11-2.11c1.12-1.41,1.69-3.35,1.69-5.82
							c0-2.51-0.56-4.46-1.69-5.85c-1.13-1.39-2.83-2.08-5.11-2.08h-9.31l3.28-5V868.51z M1240.41,884.63l-7.98-16.51h7.89
							l8.07,16.51H1240.41z"/><path fill="#0643a3" d="M1263.21,884.63l-13.78-45.49h7.98l12.04,40.29h-4.7l12.23-40.29h7.34l-13.82,45.49H1263.21z"/><path fill="#0643a3" d="M1294.32,876.18h17.38v8.45h-24.72v-45.49h24.13v8.45h-16.79V876.18z M1293.78,857.46h15.37v8.19h-15.37
							V857.46z"/><path fill="#0643a3" d="M1325.21,884.63v-18.59l1.69,6.37l-14.05-33.27h7.85l10.77,25.54h-4.52l10.81-25.54h7.25l-14.05,33.27
							l1.64-6.37v18.59H1325.21z"/></g><g><path fill="#2c7efe" d="M1133.11,1173.61h-84.96c-3.44,0-6.23-2.79-6.23-6.23v-84.96c0-3.44,2.79-6.23,6.23-6.23h84.96
								c3.44,0,6.23,2.79,6.23,6.23v84.96C1139.34,1170.82,1136.55,1173.61,1133.11,1173.61z M1054.38,1161.14h72.49v-72.49h-72.49
								V1161.14z"/><path fill="#2c7efe" d="M1119.67,1150.13l-22-25.24l22-25.24c1.92-2.21,1.69-5.57-0.51-7.49c-2.21-1.92-5.57-1.69-7.49,0.51
							l-21.04,24.14l-21.04-24.14c-1.01-1.16-2.47-1.82-4-1.82c-1.28,0-2.52,0.46-3.49,1.31c-2.21,1.92-2.43,5.28-0.51,7.49
							l22,25.24l-22,25.24c-1.92,2.21-1.69,5.57,0.51,7.49c0.97,0.84,2.21,1.31,3.49,1.31c1.54,0,2.99-0.66,4-1.82l21.04-24.14
							l21.04,24.14c1.92,2.2,5.28,2.44,7.49,0.51C1121.37,1155.7,1121.6,1152.34,1119.67,1150.13z"/></g><path fill="#2c7efe" d="M1122.21,1467.57l-22-25.24l22-25.24c1.92-2.21,1.69-5.57-0.51-7.49c-2.21-1.92-5.57-1.69-7.49,0.51
						l-21.04,24.14l-21.04-24.14c-1.01-1.16-2.47-1.82-4-1.82c-1.28,0-2.52,0.46-3.49,1.31c-2.21,1.92-2.43,5.28-0.51,7.49l22,25.24
						l-22,25.24c-1.92,2.21-1.69,5.57,0.51,7.49c0.97,0.84,2.21,1.31,3.49,1.31c1.54,0,2.99-0.66,4-1.82l21.04-24.14l21.04,24.14
						c1.92,2.2,5.28,2.44,7.49,0.51C1123.91,1473.14,1124.14,1469.78,1122.21,1467.57z"/><path fill="#84b2fe" d="M1479.32,1444.87L1479.32,1444.87h-366.15v48.76v21.4c0,23.15-20.26,42.24-46.4,44.93h452.42
						c1.77,0.21,3.57,0.33,5.39,0.33h6.24c1.12,0,2.23-0.04,3.32-0.13c23.44-1.69,41.93-21.25,41.93-45.13v-21.4v-48.76H1479.32z"/></g><g><path fill="#ffcdad" d="M1001.41,1579.87c22.62,9.18,20.45,17.78,43.7,28.11c12.11,5.39,40.78,18.3,67.46,6.35
						c28.73-12.86,47.17-49.72,37.96-64.99c-2.14-3.55-5.4-5.29-6.17-5.69c-13.03-6.64-25.6,11.09-48,12.87
						c-18.26,1.45-36.26-8.24-36.32-14.96c-0.05-6.87,18.8-7.45,25.6-23.43c1.7-3.99,4.51-13.19,0.86-16.43
						c-7.96-7.05-32,27.24-68.51,29.5c-33.49,2.07-49.34-25.65-66.08-16.28c-14.25,7.97-18.95,36.85-8.16,50.38
						C954.04,1578.22,970.61,1567.36,1001.41,1579.87z"/><path fill="#f9a83d" d="M612.07,1046.17c84.47,53.29,68.33,164.01,113.28,263.17c32.77,72.29,106.54,157.27,284.17,218.91
						c0.82,7.57,1.85,26.96-9.43,46.8c-6.48,11.39-14.64,18.75-20.23,22.98c-96.85-28.82-234.25-88.82-338.04-218.32
						c-98.83-123.32-169.01-311.93-122.24-349.71C541.85,1012.01,587.6,1030.73,612.07,1046.17z"/></g></g></g><g><path fill="#ffcdad" d="M1835.64,1474.6c7.3,5.45,9.63,3.1,17.42,8.53c4.06,2.83,13.72,9.49,15.06,20.32
				c1.44,11.66-6.77,24.67-13.43,24.68c-1.55,0-2.73-0.7-3.01-0.87c-4.64-2.88-1.4-10.32-5.16-17.82c-3.06-6.11-9.64-9.99-11.8-8.71
				c-2.2,1.31,1.25,7.44-2.54,12.7c-0.95,1.31-3.34,3.99-5.08,3.45c-3.79-1.18,2.52-15.49-3.81-27.58
				c-5.81-11.1-17.72-10.81-17.96-17.96c-0.21-6.09,8.11-13.17,14.52-12.34C1825.97,1459.79,1825.7,1467.18,1835.64,1474.6z"/><path fill="#ffcdad" d="M1414.1,1299.7c-0.54-2.84-2.83-5.48-7.41-10.75c-1.68-1.93-3.56-4.05-6.54-6.34
				c-2.94-2.26-5.71-3.74-7.79-4.69c-3.98-1.49-7.39-2.79-10.07-3.82c0,0-25.9-9.92-28.65-7.06c-0.04,0.04-0.07,0.07-0.07,0.07
				c-0.11,0.13-0.29,0.37-0.36,0.72c-1.03,4.62,20.57,7.67,24.05,19.48c1.93,6.54-3.47,9.75-0.61,14.34
				c3.31,5.3,10.92,1.65,21.78,8.63c4.13,2.65,5.25,4.6,7.78,4.26C1410.93,1313.91,1415.31,1306.05,1414.1,1299.7z"/><path fill="#f17eac" d="M1611.34,1272.51c-7.81,14.14-21.12,32.3-42.93,44.58c-44.18,24.88-105.19,15.49-155.19-23.11
				c-2.67,0.89-8.68,3.28-13.68,9.27c-3.93,4.71-5.48,9.52-6.13,12.19c45.4,53.63,113.73,77.66,175,61.09
				c54.33-14.69,83.8-56.09,92.46-69.34C1644.36,1295.62,1627.85,1284.07,1611.34,1272.51z"/><path fill="#ffcdad" d="M1638.33,1812.13c2.94,11.52,7.42,15.45,8.22,24.33c1.07,11.91-5.5,21.55-8.98,26.66
				c-19.44,28.52-67.32,25.72-70.2,25.52c43.14-28.31,51.15-49.15,50.06-63.19c-1.03-13.23-10.56-25.89-4.59-33.73
				c4.7-6.18,16.01-5.44,24.05-4.12C1636.18,1793.3,1635.77,1802.08,1638.33,1812.13z"/><path fill="#0643a3" d="M1640.98,1820.93c-6.25,0.15-6.96,15.72-16.19,29.39c-6.47,9.58-19.1,21.15-46.49,27.31
				c-9.43,0.63-31.13,2.62-32.14,9.42c-0.72,4.85,9.36,10.54,16.18,12.93c17.83,6.26,35.37-2.23,42.45-5.66
				c5.76-2.79,14.86-8.08,23.85-17.9c1.27,6.21,2.55,12.43,3.82,18.64c0.21,0.26,1.81,2.15,4.27,2.08c2.37-0.07,4.54-1.92,5.17-4.57
				c0-2.88,0.19-6.09,0.71-9.57c1.17-7.83,3.6-14.21,5.88-18.89c1.88-3.56,6.45-13.39,3.91-25.27
				C1650.94,1831.85,1646.28,1820.8,1640.98,1820.93z"/><path fill="#ffcdad" d="M1736.78,1812.15c2.93,11.52,7.41,15.45,8.21,24.33c1.07,11.91-5.49,21.55-8.96,26.66
				c-19.4,28.51-67.18,25.71-70.05,25.5c43.05-28.3,51.04-49.14,49.95-63.18c-1.03-13.23-10.54-25.89-4.59-33.73
				c4.69-6.17,15.98-5.43,24-4.11C1734.63,1793.32,1734.22,1802.1,1736.78,1812.15z"/><path fill="#084db2" d="M1739.43,1820.95c-6.23,0.15-6.94,15.72-16.15,29.38c-6.46,9.58-19.06,21.15-46.39,27.31
				c-9.41,0.63-31.06,2.62-32.07,9.41c-0.72,4.85,9.34,10.54,16.15,12.93c17.79,6.26,35.3-2.22,42.37-5.65
				c5.75-2.78,14.83-8.08,23.8-17.9c1.27,6.21,2.55,12.43,3.82,18.64c0.21,0.26,1.81,2.15,4.26,2.08c2.36-0.07,4.53-1.92,5.16-4.57
				c0-2.88,0.19-6.09,0.71-9.57c1.17-7.83,3.6-14.21,5.87-18.89c1.87-3.56,6.43-13.39,3.9-25.27
				C1749.37,1831.87,1744.71,1820.82,1739.43,1820.95z"/><path fill="#0643a3" d="M1609.01,1476.37c-9.74,33.26-18.45,73.49-22.29,119.54c-7.51,90.2,6.78,165.52,21.27,216.8
				c2.36,1.37,8.99,4.79,17.96,4.09c9.27-0.72,15.43-5.4,17.5-7.13c-8.95-37.82-17-94.6-3.04-159.05
				c22.3-102.97,86.61-160.26,61.8-194.51c-12.78-17.64-46.57-25.53-68.89-13.17C1617.22,1451.86,1611.11,1469.08,1609.01,1476.37z"/><path fill="#084db2" d="M1647.8,1482.81c-3.47,34.48-4.65,75.63,0.03,121.6c9.17,90.04,37.04,161.47,60.7,209.21
				c2.61,0.92,9.64,3,18.22,0.75c9.08-2.38,14.34-8.16,16.08-10.25c-15.74-35.54-34.07-89.87-32.18-155.79
				c3.02-105.31,55.73-173.44,25.05-202.55c-15.8-15-50.47-16.55-70.14-0.3C1651.37,1457.2,1648.52,1475.26,1647.8,1482.81z"/><path fill="#84b2fe" d="M1773.46,1473.08"/><path fill="#f98cb6" d="M1604.13,1280.04c-17.86,23.96,4.29,55.99,9.81,115.36c3,32.34-0.28,58.9-3.14,75.14
				c5.83,5.46,26.6,23.6,58.27,25.08c43.99,2.06,71.77-29.74,75.13-33.72c-6.34-91.5-29.84-161.39-61.04-184.48
				c-7.43-5.5-22.32-16.6-42.11-15.28C1637.57,1262.38,1615.9,1264.25,1604.13,1280.04z"/><path fill="#ffcdad" d="M1618.55,1248.89c-1.84,11.66,0.43,21.38,2.31,27.11c1.63,7.37,8.32,12.47,15.57,12.11
				c7.76-0.38,14.19-6.91,14.42-15c0.62-8.97,0.79-19.25,0-30.57c-0.91-13.14-2.91-24.78-5.19-34.61
				C1641.68,1210.61,1622.45,1224.14,1618.55,1248.89z"/><path fill="#ffcdad" d="M1601.51,1197.8c-4.71,4.56-6.03,10.01-7.45,15.9c-1.22,5.05-8.02,33.14,8.45,44.47
				c11.41,7.85,28.55,3.91,38.76-4.47c15.25-12.53,20.31-39.33,5.96-53.91C1635.06,1187.41,1612.34,1187.31,1601.51,1197.8z"/><path fill="#fff" d="M1604.09,1250.6c3.33,0.73,8.81,1.42,15.34-0.14c4.7-1.12,8.4-3.05,10.95-4.66
				c-0.46,1.22-2.91,7.41-8.9,9.94C1615.62,1258.22,1608.73,1256.2,1604.09,1250.6z"/><path fill="#66f" d="M1646.24,1261"/><path fill="#f17eac" d="M1706.46,1274.39c10.82,25.47,24.62,53.51,42.31,82.82c29.3,48.55,61.03,86.94,89.08,116.17
				c-6.95,5.2-13.9,10.41-20.85,15.61c-27.9-19.23-66.76-50.99-101.62-99.62c-24.93-34.78-40.59-68.1-50.55-94.42
				C1678.71,1288.1,1692.59,1281.24,1706.46,1274.39z"/><path fill="#060352" d="M1590.27,1208.77c-8.26-4.23-10.52-24.29-3.12-37.67c14.79-26.74,71.32-32.47,93.81-9.84
				c16.22,16.32,1.84,34.42,17.27,60.46c22.7,38.29,72.79,31.25,75.1,51.11c2.38,20.41-47.17,57.08-88.29,43.19
				c-1.43-0.48-30.68-10.83-37.91-35.99c-7.04-24.52,13.16-41.07,2.16-61.18c-4.79-8.75-14.62-16.58-25.19-17.99
				C1607.74,1198.67,1598.56,1213.02,1590.27,1208.77z"/></g><g><line x1="170.37" x2="1802.43" y1="1909.26" y2="1909.26" fill="#8183f1"/><rect width="1632.06" height="1" x="170.37" y="1908.76" fill="#8183f1"/><g><rect width="1632.06" height="1" x="170.37" y="1908.76" fill="#8183f1"/><path fill="#8183f1" d="M1802.95,1910.26H169.85v-2h1633.11V1910.26z M170.9,1909.26h1631.01H170.9z"/></g><g><rect width="1632.06" height="1" x="170.37" y="1908.76" fill="#8183f1"/><path fill="#8183f1" d="M1802.95,1910.26H169.85v-2h1633.11V1910.26z M170.9,1909.26h1631.01H170.9z"/><g><path fill="#8183f1" d="M1802.95,1910.26H169.85v-2h1633.11V1910.26z M170.9,1909.26h1631.01H170.9z"/><path fill="#8183f1" d="M1803.48,1910.76H169.32v-3h1634.16V1910.76z M170.37,1909.76h1632.06v-1h-0.52v1H170.9v-1h-0.52
							V1909.76z"/></g></g><g><path fill="#8183f1" d="M1802.43,1919.26H170.37c-5.49,0-9.93-4.48-9.93-10c0-5.52,4.45-10,9.93-10h1632.06
							c5.49,0,9.93,4.48,9.93,10C1812.36,1914.78,1807.92,1919.26,1802.43,1919.26z"/><path fill="#8183f1" d="M1802.43,1919.76H170.37c-5.77,0-10.46-4.71-10.46-10.5c0-5.79,4.69-10.5,10.46-10.5h1632.06
							c5.77,0,10.46,4.71,10.46,10.5C1812.89,1915.05,1808.2,1919.76,1802.43,1919.76z M170.37,1899.76c-5.19,0-9.41,4.26-9.41,9.5
							s4.22,9.5,9.41,9.5h1632.06c5.19,0,9.41-4.26,9.41-9.5s-4.22-9.5-9.41-9.5H170.37z"/><g><path fill="#8183f1" d="M1802.43,1919.76H170.37c-5.77,0-10.46-4.71-10.46-10.5c0-5.79,4.69-10.5,10.46-10.5h1632.06
							c5.77,0,10.46,4.71,10.46,10.5C1812.89,1915.05,1808.2,1919.76,1802.43,1919.76z M170.37,1899.76c-5.19,0-9.41,4.26-9.41,9.5
							s4.22,9.5,9.41,9.5h1632.06c5.19,0,9.41-4.26,9.41-9.5s-4.22-9.5-9.41-9.5H170.37z"/><path fill="#8183f1" d="M1802.43,1920.26H170.37c-6.05,0-10.98-4.93-10.98-11s4.93-11,10.98-11h1632.06
							c6.05,0,10.98,4.93,10.98,11S1808.49,1920.26,1802.43,1920.26z M160.44,1909.26c0,5.51,4.46,10,9.93,10h1632.06
							c5.48,0,9.93-4.49,9.93-10c0,5.51-4.46,10-9.93,10H170.37C164.89,1919.26,160.44,1914.77,160.44,1909.26z M170.37,1900.26
							c-4.9,0-8.88,4.04-8.88,9s3.99,9,8.88,9h1632.06c4.9,0,8.88-4.04,8.88-9s-3.98-9-8.88-9H170.37z"/></g><g><path fill="#8183f1" d="M1802.43,1919.76H170.37c-5.77,0-10.46-4.71-10.46-10.5c0-5.79,4.69-10.5,10.46-10.5h1632.06
							c5.77,0,10.46,4.71,10.46,10.5C1812.89,1915.05,1808.2,1919.76,1802.43,1919.76z M170.37,1899.76c-5.19,0-9.41,4.26-9.41,9.5
							s4.22,9.5,9.41,9.5h1632.06c5.19,0,9.41-4.26,9.41-9.5s-4.22-9.5-9.41-9.5H170.37z"/><path fill="#8183f1" d="M1802.43,1920.26H170.37c-6.05,0-10.98-4.93-10.98-11s4.93-11,10.98-11h1632.06
							c6.05,0,10.98,4.93,10.98,11S1808.49,1920.26,1802.43,1920.26z M160.44,1909.26c0,5.51,4.46,10,9.93,10h1632.06
							c5.48,0,9.93-4.49,9.93-10c0,5.51-4.46,10-9.93,10H170.37C164.89,1919.26,160.44,1914.77,160.44,1909.26z M170.37,1900.26
							c-4.9,0-8.88,4.04-8.88,9s3.99,9,8.88,9h1632.06c4.9,0,8.88-4.04,8.88-9s-3.98-9-8.88-9H170.37z"/><g><path fill="#8183f1" d="M1802.43,1920.26H170.37c-6.05,0-10.98-4.93-10.98-11s4.93-11,10.98-11h1632.06
							c6.05,0,10.98,4.93,10.98,11S1808.49,1920.26,1802.43,1920.26z M160.44,1909.26c0,5.51,4.46,10,9.93,10h1632.06
							c5.48,0,9.93-4.49,9.93-10c0,5.51-4.46,10-9.93,10H170.37C164.89,1919.26,160.44,1914.77,160.44,1909.26z M170.37,1900.26
							c-4.9,0-8.88,4.04-8.88,9s3.99,9,8.88,9h1632.06c4.9,0,8.88-4.04,8.88-9s-3.99-9-8.88-9H170.37z"/><path fill="#8183f1" d="M1802.43,1920.76H170.37c-6.34,0-11.5-5.16-11.5-11.5s5.16-11.5,11.5-11.5h1632.06
							c6.34,0,11.5,5.16,11.5,11.5S1808.77,1920.76,1802.43,1920.76z M159.91,1909.26c0,5.79,4.69,10.5,10.46,10.5h1632.06
							c5.77,0,10.46-4.71,10.46-10.5c0,5.79-4.69,10.5-10.46,10.5H170.37C164.6,1919.76,159.91,1915.05,159.91,1909.26z
							 M159.91,1909.26h1.05c0,5.24,4.22,9.5,9.41,9.5h1632.06c5.19,0,9.41-4.26,9.41-9.5h1.05c0-5.79-4.69-10.5-10.46-10.5H170.37
							C164.6,1898.76,159.91,1903.46,159.91,1909.26z M1802.43,1918.76H170.37c-5.19,0-9.41-4.26-9.41-9.5s4.22-9.5,9.41-9.5
							h1632.06c5.19,0,9.41,4.26,9.41,9.5S1807.62,1918.76,1802.43,1918.76z M170.37,1900.76c-4.61,0-8.36,3.81-8.36,8.5
							s3.75,8.5,8.36,8.5h1632.06c4.61,0,8.36-3.81,8.36-8.5s-3.75-8.5-8.36-8.5H170.37z"/></g></g></g></g><g><path fill="#d2ddf9" d="M1858.66,888.87h-254.1c-15.04,0-27.23,12.19-27.23,27.23v35.79v45.8v70.23
				c12.8-14.33,25.59-28.66,38.39-43h242.95c15.04,0,27.23-12.19,27.23-27.23V916.1C1885.89,901.06,1873.7,888.87,1858.66,888.87z"/><circle cx="1655.63" cy="956.01" r="19.44" fill="#fff" transform="rotate(-45.001 1655.625 956.036)"/><circle cx="1732.49" cy="956.01" r="19.44" fill="#fff" transform="rotate(-45.001 1732.487 956.037)"/><circle cx="1807.58" cy="956.01" r="19.44" fill="#fff" transform="rotate(-7.022 1807.29 955.978)"/></g><g><path fill="#f8ea14" d="M732.79,161.6c-13.09,40.28-72.71,40.28-85.8,0c13.09,40.28-35.15,75.33-69.42,50.43
						c34.27,24.9,15.84,81.6-26.51,81.6c42.36,0,60.78,56.71,26.51,81.6c34.27-24.9,82.5,10.15,69.42,50.43
						c13.09-40.28,72.71-40.28,85.8,0c-13.09-40.28,35.15-75.33,69.42-50.43c-34.27-24.9-15.84-81.6,26.51-81.6
						c-42.36,0-60.78-56.71-26.51-81.6C767.94,236.93,719.7,201.88,732.79,161.6z" opacity=".51"/><path fill="#f8cd12" d="M784.01,303.12c0,1.39-0.03,2.77-0.09,4.15c-2.09,52.02-43.39,93.53-94.04,93.53
					c-50.64,0-91.94-41.51-94.04-93.53c-0.06-1.38-0.09-2.76-0.09-4.15c0-53.95,42.14-97.68,94.12-97.68
					C741.87,205.44,784.01,249.17,784.01,303.12z"/><path fill="#f8ea14" d="M783.92,307.27c-2.09,52.02-43.39,93.53-94.04,93.53c-50.64,0-91.94-41.51-94.04-93.53
					c2.09-52.02,43.39-93.53,94.04-93.53C740.53,213.75,781.83,255.25,783.92,307.27z"/><path fill="#fff" d="M680.29,383.63c-0.01,0-0.02,0-0.03,0c-1.19-0.02-2.14-0.99-2.12-2.18c0.15-11.13,0.21-22.11,0.19-33.19
						c-4.23-0.38-8.19-1.02-11.7-1.91c-8.77-2.21-14.15-5.72-15.98-10.43c-2.34-6.02,1.33-13.91,6.23-17.5
						c6.42-4.7,16.96-3.77,22.12,1.94c3.48,3.86,3.53,8.91,3.55,10.82c0.04,4.39,0.07,8.74,0.08,13.08
						c3.11,0.15,6.38,0.16,9.75,0.01c0.17-0.01,0.34-0.01,0.51-0.02l-0.03-12.68c0.01-2.35,0.54-8.25,5.25-12.47
						c5.82-5.21,14.41-4.37,19.92-1.39c3.02,1.63,5.87,4.32,7.83,7.38c2.25,3.51,3.01,7.05,2.15,9.97
						c-2.38,8.07-16.72,12.03-30.8,13.21l0.09,33.06c0,1.19-0.96,2.15-2.14,2.16c0,0,0,0-0.01,0c-1.18,0-2.15-0.96-2.15-2.14
						l-0.09-32.79c-0.11,0.01-0.23,0.01-0.34,0.01c-3.37,0.14-6.7,0.13-9.93-0.02c0.02,11.01-0.05,21.9-0.2,32.96
						C682.42,382.68,681.46,383.63,680.29,383.63z M708.55,319.6c-2.71,0-5.42,0.77-7.57,2.7c-3.52,3.16-3.82,7.89-3.82,9.27
						l0.03,12.38c14.36-1.26,25.27-5.3,26.69-10.11c1.04-3.52-2.88-9.63-7.9-12.35C713.87,320.36,711.21,319.6,708.55,319.6z
						 M666.72,319.73c-2.66,0-5.3,0.7-7.3,2.16c-3.92,2.87-6.19,8.82-4.77,12.47c1.9,4.87,11.13,8.42,23.67,9.59
						c-0.01-4.22-0.04-8.46-0.08-12.74c-0.01-1.59-0.05-5.32-2.44-7.97C673.72,320.94,670.21,319.73,666.72,319.73z"/><ellipse cx="689.65" cy="463.85" fill="#0643a3" rx="25.12" ry="12.92"/><path fill="#2c7efe" d="M745.68,381.29l-12.73,71.12c-1.19,6.65-6.98,11.5-13.73,11.5h-58.65c-6.76,0-12.54-4.84-13.74-11.5
						l-12.73-71.12H745.68z"/><line x1="635.86" x2="716.53" y1="401.62" y2="401.62" fill="#0643a3"/><path fill="#0643a3" d="M716.53,405.73h-80.68c-2.27,0-4.1-1.84-4.1-4.1c0-2.26,1.84-4.1,4.1-4.1h80.68c2.27,0,4.1,1.84,4.1,4.1
							C720.63,403.89,718.8,405.73,716.53,405.73z"/><line x1="658.81" x2="739.49" y1="422.6" y2="422.6" fill="#0643a3"/><path fill="#0643a3" d="M739.49,426.7h-80.68c-2.27,0-4.1-1.84-4.1-4.1c0-2.26,1.84-4.1,4.1-4.1h80.68c2.27,0,4.1,1.84,4.1,4.1
							C743.59,424.87,741.75,426.7,739.49,426.7z"/><g><line x1="643.44" x2="714.78" y1="446.18" y2="446.18" fill="#0643a3"/><path fill="#0643a3" d="M714.78,450.28h-71.34c-2.26,0-4.1-1.84-4.1-4.1c0-2.26,1.84-4.1,4.1-4.1h71.34c2.27,0,4.1,1.84,4.1,4.1
							C718.88,448.45,717.04,450.28,714.78,450.28z"/></g><g><path fill="#f9efa5" d="M759.32,291.75c-1.33,0-2.49-0.98-2.69-2.33c-1.26-8.75-5.54-25.49-20.16-39.33
						c-19.4-18.37-43.5-18.53-50.43-18.14c-1.5,0.08-2.78-1.06-2.87-2.56c-0.08-1.5,1.06-2.78,2.56-2.87
						c6.52-0.36,13.88,0.29,20.74,1.84c13.04,2.95,24.39,8.93,33.73,17.78c15.81,14.97,20.45,33.06,21.8,42.5
						c0.21,1.49-0.82,2.87-2.31,3.08C759.58,291.74,759.45,291.75,759.32,291.75z"/><path fill="#f9efa5" d="M759.32,291.88c-1.41,0-2.62-1.05-2.82-2.45c-1.25-8.73-5.53-25.43-20.12-39.25
						c-19.36-18.33-43.42-18.49-50.33-18.11c-1.57,0.09-2.92-1.12-3.01-2.69c-0.04-0.76,0.21-1.49,0.72-2.06
						c0.51-0.57,1.21-0.91,1.97-0.95c6.53-0.37,13.91,0.29,20.78,1.84c13.06,2.95,24.43,8.95,33.8,17.82
						c15.84,15,20.49,33.12,21.84,42.58c0.11,0.76-0.08,1.51-0.54,2.12c-0.46,0.61-1.12,1.01-1.88,1.11
						C759.59,291.87,759.46,291.88,759.32,291.88L759.32,291.88C759.32,291.88,759.32,291.88,759.32,291.88z M689.24,231.73
						c9.47,0,30.22,2.07,47.32,18.26c14.65,13.87,18.94,30.64,20.2,39.4c0.18,1.26,1.28,2.22,2.55,2.22c0,0,0,0,0,0l0,0
						c0.12,0,0.25-0.01,0.37-0.03c0.68-0.1,1.29-0.46,1.7-1.01c0.41-0.55,0.59-1.23,0.49-1.92c-1.35-9.43-5.98-27.48-21.76-42.42
						c-9.33-8.83-20.66-14.81-33.67-17.75c-6.85-1.55-14.2-2.2-20.7-1.84c-0.69,0.04-1.32,0.34-1.78,0.86
						c-0.46,0.51-0.69,1.18-0.65,1.87c0.08,1.42,1.31,2.51,2.72,2.44C686.87,231.76,687.95,231.73,689.24,231.73z"/></g></g></svg>